<svg width="51" height="11" viewBox="0 0 51 11" fill="none" xmlns="http://www.w3.org/2000/svg">
<path fill-rule="evenodd" clip-rule="evenodd" d="M47.0924 9.47827C48.1111 9.25546 47.4359 8.73777 47.4359 8.73777C47.4359 8.73777 38.1316 8.29191 38.5345 7.16855C38.9375 6.04519 48.3051 7.19169 49.0937 5.86886C49.8314 4.63988 39.3327 5.05229 39.9443 3.92996C40.557 2.81391 50.0228 2.89568 50.0228 2.89568C50.0228 2.89568 51.1439 2.42235 50.3531 2.15105C40.6346 -1.20897 34.9916 1.11955 34.9916 1.11955C34.9916 1.11955 33.8518 1.50785 33.401 2.49539C33.3653 2.58676 5.3847 3.07465 1.84121 2.97695C0.121533 2.92648 -0.734727 7.32279 0.981764 7.36817C4.52552 7.4663 30.9144 8.11605 30.8729 8.20392C30.427 9.19493 31.1921 9.63572 31.1921 9.63572C31.1921 9.63572 34.6173 12.2181 47.0924 9.47827Z" fill="black"/>
</svg>
