<svg width="30" height="30" viewBox="0 0 30 30" fill="none" xmlns="http://www.w3.org/2000/svg">
<g clip-path="url(#clip0_98_2)">
<path d="M1.53027 14.8383C1.53027 8.61833 1.53027 5.50837 3.46255 3.57608C5.39485 1.6438 8.50481 1.6438 14.7248 1.6438C20.9446 1.6438 24.0546 1.6438 25.987 3.57608C27.9192 5.50837 27.9192 8.61833 27.9192 14.8383C27.9192 21.0581 27.9192 24.1681 25.987 26.1005C24.0546 28.0327 20.9446 28.0327 14.7248 28.0327C8.50481 28.0327 5.39485 28.0327 3.46255 26.1005C1.53027 24.1681 1.53027 21.0581 1.53027 14.8383Z" stroke="#7BA11F" stroke-width="2.5" stroke-linejoin="round"/>
<path d="M20.9747 14.8384C20.9747 18.2902 18.1764 21.0884 14.7247 21.0884C11.2729 21.0884 8.47461 18.2902 8.47461 14.8384C8.47461 11.3866 11.2729 8.58838 14.7247 8.58838C18.1764 8.58838 20.9747 11.3866 20.9747 14.8384Z" stroke="#7BA11F" stroke-width="2.5"/>
<path d="M22.3735 7.19946H22.3613" stroke="#7BA11F" stroke-width="2.5" stroke-linecap="round" stroke-linejoin="round"/>
</g>
<defs>
<clipPath id="clip0_98_2">
<rect width="30" height="30" fill="white"/>
</clipPath>
</defs>
</svg>
