<svg width="27" height="27" viewBox="0 0 27 27" fill="none" xmlns="http://www.w3.org/2000/svg">
<path d="M1.37695 13.3545C1.37695 7.75657 1.37695 4.9576 3.116 3.21854C4.85507 1.47949 7.65403 1.47949 13.252 1.47949C18.8498 1.47949 21.6488 1.47949 23.388 3.21854C25.127 4.9576 25.127 7.75657 25.127 13.3545C25.127 18.9524 25.127 21.7514 23.388 23.4905C21.6488 25.2295 18.8498 25.2295 13.252 25.2295C7.65403 25.2295 4.85507 25.2295 3.116 23.4905C1.37695 21.7514 1.37695 18.9524 1.37695 13.3545Z" stroke="#7BA11F" stroke-width="2.5" stroke-linejoin="round"/>
<path d="M18.877 13.3545C18.877 16.4611 16.3586 18.9795 13.252 18.9795C10.1454 18.9795 7.62695 16.4611 7.62695 13.3545C7.62695 10.2479 10.1454 7.72949 13.252 7.72949C16.3586 7.72949 18.877 10.2479 18.877 13.3545Z" stroke="#7BA11F" stroke-width="2.5"/>
<path d="M20.1362 6.47949H20.125" stroke="#7BA11F" stroke-width="2.5" stroke-linecap="round" stroke-linejoin="round"/>
</svg>
