<svg width="30" height="30" viewBox="0 0 30 30" fill="none" xmlns="http://www.w3.org/2000/svg">
<g clip-path="url(#clip0_98_8)">
<path d="M6.66699 22.8262C3.61878 23.3632 1.66699 24.1883 1.66699 25.1136C1.66699 26.7318 7.63653 28.0436 15.0003 28.0436C22.3642 28.0436 28.3337 26.7318 28.3337 25.1136C28.3337 24.1883 26.3818 23.3632 23.3337 22.8262" stroke="#7BA11F" stroke-width="2" stroke-linecap="round"/>
<path d="M19.1663 11.087C19.1663 12.888 17.3008 14.3479 14.9997 14.3479C12.6985 14.3479 10.833 12.888 10.833 11.087C10.833 9.28612 12.6985 7.82617 14.9997 7.82617C17.3008 7.82617 19.1663 9.28612 19.1663 11.087Z" stroke="#7BA11F" stroke-width="2"/>
<path d="M17.0953 22.1656C16.5332 22.5892 15.7818 22.8261 15 22.8261C14.218 22.8261 13.4667 22.5892 12.9045 22.1656C7.75684 18.2619 0.858324 13.9011 4.22252 7.5701C6.04151 4.14696 10.4079 1.95654 15 1.95654C19.592 1.95654 23.9583 4.14697 25.7773 7.5701C29.1373 13.8932 22.2557 18.2754 17.0953 22.1656Z" stroke="#7BA11F" stroke-width="2"/>
</g>
<defs>
<clipPath id="clip0_98_8">
<rect width="30" height="30" fill="white"/>
</clipPath>
</defs>
</svg>
