<svg width="108" height="72" viewBox="0 0 108 72" fill="none" xmlns="http://www.w3.org/2000/svg">
<path d="M64 52C64 44.4576 64 40.6864 66.929 38.3432C69.858 36 74.572 36 84 36C93.428 36 98.142 36 101.071 38.3432C104 40.6864 104 44.4576 104 52C104 59.5424 104 63.3136 101.071 65.6568C98.142 68 93.428 68 84 68C74.572 68 69.858 68 66.929 65.6568C64 63.3136 64 59.5424 64 52Z" stroke="#7BA11F" stroke-width="8"/>
<path d="M64 52V35.4504C64 20.7828 76.5785 8.34336 94 4" stroke="#7BA11F" stroke-width="8" stroke-linecap="round"/>
<path d="M4 52C4 44.4576 4 40.6864 6.92895 38.3432C9.85785 36 14.5719 36 24 36C33.4281 36 38.1422 36 41.0711 38.3432C44 40.6864 44 44.4576 44 52C44 59.5424 44 63.3136 41.0711 65.6568C38.1422 68 33.4281 68 24 68C14.5719 68 9.85785 68 6.92895 65.6568C4 63.3136 4 59.5424 4 52Z" stroke="#7BA11F" stroke-width="8"/>
<path d="M4 52V35.4504C4 20.7828 16.5786 8.34336 34 4" stroke="#7BA11F" stroke-width="8" stroke-linecap="round"/>
</svg>
